# xmcd CD database file
#
# Track frame offsets:
#	150
#	23742
#	56307
#	76360
#	86990
#	130617
#	154632
#	188607
#	201010
#	218145
#	241192
#	260920
#
# Disc length: 3665 seconds
#
# Revision: 0
# Processed by: cddbd v1.5.2PL0 Copyright (c) Steve Scherf et al.
# Submitted via: CDex 1.70beta2
#
DISCID=980e4f0c
DTITLE=Boris Frumkin - Stardust
DYEAR=1994
DGENRE=Jazz
TTITLE0=St. Louis Blues
TTITLE1=Medley - Here's That Rainy Day - On A Clear Day
TTITLE2=Stardust
TTITLE3=Ain't Misbehavin'
TTITLE4=A Tribute To Frank Sinatra - Strangers In The Night - Cheek To Cheek
TTITLE5=A Tribute To Nat King Cole - Mona Lisa - Orange Colored Sky - It's Only A Paper Moon
TTITLE6=Gershwin Bros. Medley - They All Laughed - Someone To Watch Over Me - The Man I Love
TTITLE7=Tea For Two
TTITLE8=September In The Rain
TTITLE9=A Tribute To Glenn Miller - I Know Why - Chattanooga, Choo, Choo
TTITLE10=Samba de Orfeu
TTITLE11=When I Fall In Love
EXTD=YEAR: 1994
EXTT0=
EXTT1=
EXTT2=
EXTT3=
EXTT4=
EXTT5=
EXTT6=
EXTT7=
EXTT8=
EXTT9=
EXTT10=
EXTT11=
PLAYORDER=
